<svg width="159" height="49" viewBox="0 0 159 49" fill="none" xmlns="http://www.w3.org/2000/svg">
<g clip-path="url(#clip0_1_126)">
<path d="M11.0068 0.264286H1.48235C1.28513 0.25458 1.08807 0.286652 0.903861 0.358437C0.71965 0.430222 0.552354 0.540136 0.412731 0.681106C0.273109 0.822076 0.164247 0.990983 0.093148 1.17697C0.0220493 1.36296 -0.00971062 1.56192 -9.73024e-05 1.76104V26.2128C-0.0102215 26.4122 0.0211602 26.6116 0.0920304 26.798C0.162901 26.9844 0.271682 27.1538 0.41136 27.2951C0.551038 27.4365 0.718515 27.5467 0.902981 27.6187C1.08745 27.6907 1.28481 27.7229 1.48235 27.7132H2.22533C2.41995 27.7178 2.61343 27.6819 2.79368 27.6076C2.97392 27.5334 3.13705 27.4224 3.27287 27.2815C3.40869 27.1407 3.51427 26.9731 3.58301 26.7892C3.65176 26.6054 3.68218 26.4091 3.6724 26.2128V17.8431H11.0068C13.6745 17.8431 15.8398 17.0644 17.4637 15.5069C19.0877 13.9494 19.8554 11.7489 19.8554 9.07693C19.8554 6.40492 19.0346 4.20443 17.4319 2.62552C15.8291 1.0466 13.7063 0.25 11.0068 0.25M3.6724 3.85079H10.8723C12.5671 3.85079 13.8231 4.29017 14.7288 5.20465C15.6345 6.11914 16.1193 7.38371 16.1193 9.07693C16.1193 10.7702 15.6628 11.9633 14.704 12.8849C13.7452 13.8065 12.5529 14.2281 10.8582 14.2281H3.6724V3.85079Z" fill="white"/>
<path d="M68.6841 24.1124H56.8174V1.76106C56.8262 1.56533 56.7951 1.36988 56.7259 1.18684C56.6567 1.0038 56.5509 0.837082 56.4152 0.697045C56.2795 0.557009 56.1167 0.446642 55.937 0.372812C55.7572 0.298982 55.5644 0.263265 55.3704 0.267874H54.6274C54.4308 0.25872 54.2344 0.291075 54.0509 0.362875C53.8673 0.434676 53.7007 0.544345 53.5615 0.684868C53.4223 0.825391 53.3137 0.993679 53.2426 1.17898C53.1715 1.36429 53.1394 1.56254 53.1485 1.76106V26.2164C53.1394 26.4149 53.1715 26.6132 53.2426 26.7985C53.3137 26.9838 53.4223 27.1521 53.5615 27.2926C53.7007 27.4331 53.8673 27.5428 54.0509 27.6146C54.2344 27.6864 54.4308 27.7187 54.6274 27.7096H68.6841C68.8783 27.7147 69.0716 27.6793 69.2518 27.6057C69.4319 27.5321 69.5951 27.4218 69.7312 27.2817C69.8673 27.1417 69.9734 26.9748 70.0428 26.7915C70.1122 26.6082 70.1435 26.4124 70.1347 26.2164V25.5734C70.1433 25.3791 70.1116 25.1851 70.0416 25.0039C69.9717 24.8226 69.865 24.6581 69.7285 24.5209C69.5919 24.3837 69.4285 24.2768 69.2486 24.2071C69.0688 24.1373 68.8765 24.1063 68.6841 24.1159" fill="white"/>
<path d="M87.8036 0.264453H86.9191C86.5872 0.253084 86.2577 0.325542 85.9605 0.47525C85.6633 0.624959 85.4079 0.847186 85.2173 1.12179L77.6812 12.6564L70.2266 1.28254C70.0992 0.975325 69.6676 0.260883 68.4575 0.260883H67.4987C67.2632 0.244512 67.0277 0.293833 66.818 0.403453C66.6084 0.513074 66.4326 0.678777 66.3099 0.88245C66.192 1.10899 66.1385 1.36408 66.1554 1.61944C66.1722 1.87479 66.2588 2.12045 66.4055 2.32919L75.7919 16.5144V26.2166C75.7828 26.4154 75.815 26.614 75.8863 26.7995C75.9576 26.9851 76.0665 27.1535 76.2061 27.2941C76.3457 27.4347 76.5128 27.5443 76.6968 27.6159C76.8807 27.6874 77.0774 27.7194 77.2744 27.7097H78.0173C78.2113 27.7144 78.4042 27.6786 78.5839 27.6048C78.7637 27.531 78.9265 27.4206 79.0622 27.2806C79.1979 27.1405 79.3036 26.9738 79.3728 26.7908C79.442 26.6077 79.4732 26.4123 79.4644 26.2166V16.5716L88.9287 2.28276C89.0607 2.0801 89.1354 1.84492 89.1447 1.60256C89.1541 1.3602 89.0977 1.11986 88.9818 0.907452C88.8582 0.70377 88.6818 0.538153 88.4716 0.428576C88.2614 0.318999 88.0255 0.269652 87.7894 0.285891" fill="white"/>
<path d="M107.985 0.264325H93.5427C93.3455 0.254619 93.1484 0.286691 92.9642 0.358476C92.78 0.430261 92.6127 0.540174 92.4731 0.681144C92.3335 0.822115 92.2246 0.991021 92.1535 1.17701C92.0824 1.363 92.0507 1.56196 92.0603 1.76108V26.2164C92.0512 26.4153 92.0833 26.6138 92.1546 26.7994C92.226 26.9849 92.3349 27.1534 92.4745 27.294C92.614 27.4346 92.7811 27.5442 92.9651 27.6157C93.1491 27.6873 93.3458 27.7193 93.5427 27.7096H94.2822C94.4762 27.7142 94.669 27.6785 94.8488 27.6047C95.0285 27.5308 95.1913 27.4205 95.327 27.2804C95.4627 27.1404 95.5685 26.9737 95.6376 26.7906C95.7068 26.6076 95.738 26.4122 95.7292 26.2164V15.9856H106.251C106.446 15.995 106.64 15.9639 106.821 15.8943C107.003 15.8246 107.168 15.7179 107.308 15.5809C107.447 15.4438 107.556 15.2793 107.63 15.0975C107.703 14.9158 107.738 14.7208 107.734 14.5246V13.8816C107.743 13.6825 107.712 13.4835 107.641 13.2975C107.57 13.1115 107.461 12.9426 107.321 12.8017C107.181 12.6607 107.014 12.5508 106.83 12.479C106.646 12.4072 106.449 12.3751 106.251 12.3848H95.7292V3.86511H107.985C108.179 3.875 108.374 3.84427 108.556 3.77486C108.738 3.70546 108.904 3.59886 109.044 3.46173C109.183 3.3246 109.293 3.15989 109.367 2.97791C109.44 2.79593 109.476 2.60058 109.471 2.40408V1.76108C109.481 1.56164 109.449 1.36237 109.378 1.17612C109.306 0.989875 109.197 0.820786 109.057 0.67976C108.917 0.538733 108.749 0.428902 108.565 0.357347C108.38 0.285793 108.183 0.254103 107.985 0.264325Z" fill="white"/>
<path d="M115.348 0.26439H114.608C114.411 0.254684 114.214 0.286756 114.03 0.358541C113.846 0.430326 113.678 0.540239 113.539 0.681209C113.399 0.82218 113.29 0.991086 113.219 1.17708C113.148 1.36307 113.116 1.56202 113.126 1.76115V26.2165C113.116 26.4159 113.147 26.6153 113.218 26.8017C113.289 26.9881 113.398 27.1574 113.537 27.2988C113.677 27.4402 113.844 27.5504 114.029 27.6224C114.213 27.6944 114.411 27.7266 114.608 27.7168H115.348C115.542 27.7219 115.735 27.6866 115.915 27.613C116.096 27.5394 116.259 27.4291 116.395 27.289C116.531 27.1489 116.637 26.982 116.706 26.7987C116.776 26.6154 116.807 26.4197 116.798 26.2236V1.76115C116.808 1.56483 116.777 1.36868 116.708 1.18496C116.638 1.00125 116.532 0.83392 116.396 0.693441C116.26 0.552962 116.097 0.442351 115.916 0.368527C115.736 0.294702 115.542 0.259251 115.348 0.26439Z" fill="white"/>
<path d="M137.655 24.1123H125.788V1.76098C125.797 1.56526 125.766 1.36981 125.697 1.18676C125.627 1.00372 125.522 0.837007 125.386 0.696971C125.25 0.556934 125.087 0.446568 124.908 0.372738C124.728 0.298908 124.535 0.26319 124.341 0.2678H123.602C123.405 0.258133 123.208 0.290107 123.024 0.361678C122.84 0.433249 122.673 0.542836 122.533 0.683415C122.394 0.823993 122.285 0.992466 122.214 1.17803C122.142 1.36359 122.11 1.56215 122.119 1.76098V26.2163C122.11 26.4152 122.142 26.6137 122.214 26.7993C122.285 26.9848 122.394 27.1533 122.533 27.2939C122.673 27.4345 122.84 27.5441 123.024 27.6156C123.208 27.6872 123.405 27.7192 123.602 27.7095H137.655C137.849 27.7141 138.042 27.6784 138.221 27.6046C138.401 27.5307 138.564 27.4204 138.7 27.2803C138.835 27.1403 138.941 26.9736 139.01 26.7905C139.079 26.6075 139.111 26.4121 139.102 26.2163V25.5733C139.111 25.3792 139.08 25.1853 139.01 25.004C138.941 24.8228 138.834 24.6582 138.698 24.521C138.562 24.3837 138.399 24.2768 138.219 24.207C138.039 24.1372 137.847 24.1062 137.655 24.1159" fill="white"/>
<path d="M157.553 24.1124H145.672V1.76106C145.681 1.56564 145.65 1.3705 145.581 1.1877C145.512 1.00491 145.406 0.838359 145.271 0.698375C145.136 0.558391 144.973 0.447948 144.794 0.373897C144.615 0.299846 144.422 0.263762 144.228 0.267874H143.482C143.285 0.25872 143.089 0.291075 142.905 0.362875C142.722 0.434676 142.555 0.544345 142.416 0.684868C142.277 0.825391 142.168 0.993679 142.097 1.17898C142.026 1.36429 141.994 1.56254 142.003 1.76106V26.2164C141.994 26.4149 142.026 26.6132 142.097 26.7985C142.168 26.9838 142.277 27.1521 142.416 27.2926C142.555 27.4331 142.722 27.5428 142.905 27.6146C143.089 27.6864 143.285 27.7187 143.482 27.7096H157.539C157.733 27.7147 157.926 27.6793 158.106 27.6057C158.286 27.5321 158.45 27.4218 158.586 27.2818C158.722 27.1417 158.828 26.9748 158.897 26.7915C158.967 26.6082 158.998 26.4124 158.989 26.2164V25.5734C158.998 25.3791 158.966 25.1851 158.896 25.0039C158.826 24.8226 158.72 24.6581 158.583 24.5209C158.446 24.3837 158.283 24.2768 158.103 24.2071C157.923 24.1373 157.731 24.1063 157.539 24.1159" fill="white"/>
<path d="M28.644 14.2353C28.2194 8.25904 31.7504 2.99361 36.4277 0.00366621H36.3463C33.168 0.00123193 30.0823 1.08393 27.5904 3.07585C25.0985 5.06777 23.347 7.85187 22.6203 10.9758C21.8936 14.0998 22.2344 17.3801 23.5875 20.2838C24.9405 23.1875 27.2263 25.5439 30.0733 26.9703L30.1759 26.8917L30.1193 26.9989C31.6311 27.7532 33.2642 28.2286 34.9417 28.4027C35.4016 28.4492 29.3233 23.9518 28.6298 14.2389" fill="#00A959"/>
<path d="M30.1901 26.8879L30.0875 26.9665L30.084 26.9701L30.1335 26.9951L30.1901 26.8879Z" fill="#00A959"/>
<path d="M35.6389 4.35449C32.6457 12.0383 33.7354 19.9508 35.0268 24.9197C35.0834 25.1483 36.1165 29.6779 36.6684 30.8531C36.6684 30.8531 38.1155 31.0496 37.9598 29.8351L35.837 21.7154C34.6754 15.9943 34.6057 10.102 35.6318 4.35449" fill="#00A959"/>
<path d="M36.4702 -8.64114e-05H36.4136C41.0803 2.98985 43.4331 8.28744 44.1973 14.2316C45.2587 22.5834 37.4502 28.4418 37.9279 28.3918C41.5227 28.0177 44.838 26.2642 47.1892 23.4934C49.5405 20.7225 50.7482 17.1459 50.5629 13.5019C50.3777 9.85795 48.8136 6.42494 46.1938 3.91169C43.5739 1.39844 40.0982 -0.00314106 36.4843 -0.00366211" fill="#00A959"/>
<path d="M59.6196 49.0036V44.299L56.124 37.6904H57.2527L60.1609 43.1916L63.0692 37.6904H64.2014L60.7023 44.299V49.0036H59.6196Z" fill="white"/>
<path d="M65.1284 49.0036V37.6904H71.1431V38.7907H66.2111V42.6022H70.8848V43.6989H66.2111V47.9141H71.1006V49.0108L65.1284 49.0036Z" fill="white"/>
<path d="M72.8662 49.0036V37.6904H74.5892L79.6416 47.8141V37.6904H80.7242V49.0036H79.0012L73.9489 38.88V49.0036H72.8662Z" fill="white"/>
<path d="M82.6133 49.0036V37.6904H87.0252C88.023 37.6904 88.7058 37.9083 89.0667 38.3477C89.3851 38.7335 89.5443 39.4098 89.5443 40.3767C89.5661 40.8962 89.5197 41.4163 89.4063 41.9235C89.3284 42.1717 89.196 42.3989 89.0189 42.5881C88.8419 42.7774 88.6248 42.9239 88.3838 43.0166V43.0487C88.6783 43.1071 88.9507 43.2479 89.1696 43.4551C89.3886 43.6623 89.5454 43.9275 89.6222 44.2204C89.7403 44.8175 89.7878 45.4267 89.7637 46.0351C89.7637 47.0853 89.5726 47.8343 89.1905 48.282C88.8084 48.7297 88.0866 48.9679 87.0252 48.9965L82.6133 49.0036ZM83.6959 38.7907V42.6022H86.9934C87.2212 42.6274 87.4517 42.5934 87.6629 42.5034C87.874 42.4133 88.0589 42.2703 88.1999 42.0878C88.4059 41.6557 88.4962 41.1766 88.4617 40.6982C88.4975 40.2318 88.4348 39.763 88.2777 39.3229C88.0902 38.9657 87.6833 38.7907 87.0535 38.7907H83.6959ZM83.6959 43.6989V47.9141H86.7917C87.5949 47.9141 88.122 47.7641 88.3697 47.464C88.6174 47.1639 88.681 46.6495 88.681 45.8065C88.681 44.9634 88.5749 44.4098 88.3697 44.149C88.1645 43.8882 87.5949 43.6989 86.7917 43.6989H83.6959Z" fill="white"/>
<path d="M98.1349 49.0036L97.406 46.6102H92.5801L91.8513 49.0036H90.7227L94.2359 37.6904H95.7502L99.2635 49.0036H98.1349ZM97.0735 45.5171L95.078 38.7907H94.9223L92.9269 45.5243L97.0735 45.5171Z" fill="white"/>
<path d="M100.608 49.0036V37.6904H101.694V49.0036H100.608Z" fill="white"/>
</g>
<defs>
<clipPath id="clip0_1_126">
<rect width="159" height="49" fill="white"/>
</clipPath>
</defs>
</svg>
